<?xml version="1.0" encoding="utf-8"?>
<!-- Generator: Adobe Illustrator 22.1.0, SVG Export Plug-In . SVG Version: 6.00 Build 0)  -->
<svg version="1.1" xmlns="http://www.w3.org/2000/svg" xmlns:xlink="http://www.w3.org/1999/xlink" x="0px" y="0px"
	 viewBox="0 0 402.8 439.6" style="enable-background:new 0 0 402.8 439.6;" xml:space="preserve">
<style type="text/css">
	.st0{fill:#EFEFD2;}
	.st1{fill:#4C241D;}
	.st2{fill:#A9BA5A;}
	.st3{fill:#FFFFFF;}
	.st4{display:none;}
	.st5{display:inline;fill:#EFEFD2;}
	.st6{display:inline;fill:#A9BA5A;}
	.st7{display:inline;fill:#4C241D;}
	.st8{display:inline;fill:#FFFFFF;}
	.st9{display:inline;}
</style>
<g id="Layer_1">
	<path class="st0" d="M306.5,264.2c0,84.6-68.6,153.3-153.3,153.3S0,348.9,0,264.2C0,179.6,68.6,111,153.3,111
		S306.5,179.6,306.5,264.2z"/>
	<g>
		<path class="st1" d="M201,313.6c-0.2,0-0.5,0-0.8,0c-3.7-0.4-6.4-3.8-6-7.5c6.6-59.3-22.7-161.2-23-162.2c-1-3.6,1-7.4,4.6-8.4
			c3.7-1.1,7.4,1,8.4,4.6c1.2,4.3,30.4,105.6,23.5,167.6C207.3,311,204.4,313.6,201,313.6z"/>
		<path class="st1" d="M221.4,313.6c-0.5,0-1-0.1-1.6-0.2c-3.7-0.9-5.9-4.5-5.1-8.2c1.1-4.8,28.2-118.2,69.9-159.9
			c2.7-2.7,7-2.7,9.6,0c2.7,2.7,2.7,7,0,9.6c-39,39-66,152.3-66.3,153.4C227.3,311.5,224.5,313.6,221.4,313.6z"/>
		<path class="st1" d="M166.9,313.6c-3.8,0-6.8-3-6.8-6.8c0-25-19.3-57.5-19.5-57.8c-1.9-3.2-0.9-7.4,2.3-9.3
			c3.2-1.9,7.4-0.9,9.3,2.3c0.9,1.5,21.4,36,21.4,64.8C173.7,310.6,170.7,313.6,166.9,313.6z"/>
	</g>
	<path class="st2" d="M210.6,97.7c-2.7-1.9-2.8-5.8-0.6-8.2c3.3-3.6,6.3-7.4,9.1-11.3c-3.6-12.5-10.3-25.8-22.5-37.6
		c0.5,12.9-1.2,24.9-2.9,33.2c-1.3,6.3-7.8,10-13.9,7.9c-5.3-1.8-8.3-7.3-7-12.7c4.6-20,4.1-34.4,2.4-44c-7.4-4-15.9-7.5-25.7-10.3
		c0.7,6.8-0.3,12.6-1.4,16.5c-0.9,3.2-3.9,5.4-7.2,5.3l-0.8,0c-4.4-0.1-7.5-4-7-8.4c0.6-5.5,0-11.9-1-17.5c-4.5-0.8-9.1-1.5-14-2.1
		c2.4,8.7,2.7,15.5-2.1,15.5c-6.8,0-11.9-8.4-15.3-16.9c-9-0.4-18.6-0.5-29-0.1c0,0-1.4,6.6-2.6,17.1c5,4.1,11.7,9.1,18.2,11.7
		c4.1,1.7,6,6.2,4.1,10.1l-0.4,0.7c-1.5,3-4.8,4.6-8.1,3.9c-4-0.8-9.6-2.7-15.3-6.6c-0.3,6.7-0.3,13.9,0,21.5
		c7.6,5.6,18.8,11.9,35.3,17.1c5.3,1.7,8.5,7,7.4,12.5c-1.3,6.3-7.8,10.1-13.9,8c-7-2.4-16.5-6.1-26.2-11.7
		c2,11.7,5.3,23.5,10.4,34.4c8.6-0.6,20.4-2,31.1-5c3.2-0.9,6.5,1,7,4.3c0.8,5.2-3,13.1-27.7,18.3c6.3,8.4,14.1,15.7,23.9,21.4
		c5.1-1.5,10.3-3.3,15.3-5.5c3-1.3,6.6,0.1,7.5,3.2c0.8,2.7,0.4,6.3-3.7,10.4c4.8,1.4,9.8,2.6,15.3,3.4c6.7,1,13.4-1.4,18.2-6.2
		c4.1-4.1,6.4-9.6,6.4-15.3v-1.6c0-9.2,7.5-16.7,16.7-16.7h4c4.3,0,8.5-1.3,12-3.6l6.7-4.5c5.7-3.8,9.3-10,9.6-16.8
		c0.2-4,0.2-9-0.2-14.5C216.8,100.2,213,99.4,210.6,97.7z"/>
	<path class="st1" d="M152.1,183.3c-1.3,0-2.6-0.1-3.9-0.3c-5.2-0.7-10.6-1.9-16.3-3.6c-2.3-0.7-4.1-2.5-4.7-4.9
		c-0.6-2.3,0.1-4.8,1.8-6.5c0.3-0.3,0.9-1,1.4-1.6c-4.1,1.7-8.8,3.3-13.8,4.8c-1.8,0.5-3.8,0.3-5.4-0.6c-10-5.9-18.7-13.7-25.9-23.2
		c-1.4-1.9-1.8-4.3-0.9-6.5c0.8-2.2,2.7-3.8,5-4.3c13.8-2.9,19.5-6.4,21.5-8.7c-10.7,2.7-22,4-29.9,4.5c-2.8,0.2-5.5-1.4-6.7-3.9
		c-5-10.7-8.6-22.8-10.9-36.1c-0.5-2.6,0.7-5.2,2.8-6.8c2.2-1.5,5-1.6,7.3-0.3C83,91,92.3,94.6,98.5,96.6c1.4,0.5,2.6,0,3.1-0.3
		c0.6-0.3,1.6-1.1,1.9-2.6c0.4-2-0.8-4-2.8-4.6c-14.9-4.7-27.4-10.8-37.4-18.1c-1.6-1.2-2.7-3.1-2.7-5.2c-0.3-7.3-0.3-14.8,0-22.1
		c0.1-2.5,1.5-4.7,3.7-5.8c2.2-1.1,4.8-0.9,6.9,0.4c5.1,3.4,9.9,4.9,13,5.6l1-1c0-0.3-0.1-0.6-0.6-0.8c-5.9-2.4-12.6-6.7-19.9-12.7
		c-1.8-1.5-2.7-3.7-2.4-6C63.4,12.7,64.8,6,64.9,5.7c0.6-3.1,3.3-5.3,6.4-5.4C81.3-0.1,91-0.1,100.9,0.4c2.7,0.1,5,1.8,6,4.3
		c2,5,3.9,8.2,5.5,10.1c-0.2-1.2-0.5-2.6-1-4.4c-0.6-2.2-0.1-4.5,1.4-6.2c1.5-1.7,3.7-2.6,5.9-2.3c4.8,0.6,9.7,1.3,14.5,2.2
		c2.8,0.5,5,2.8,5.5,5.6c1.2,7.5,1.6,14,1,19.3c0,0.4,0.1,0.7,0.2,0.8l1.1,0.1c1.4-3.4,2.3-8.3,1.7-14.4c-0.2-2.2,0.7-4.5,2.4-5.9
		c1.7-1.5,4.1-1.9,6.3-1.3c9.9,2.9,18.9,6.5,27,10.9c1.8,1,3.1,2.8,3.5,4.8c2.4,13.4,1.6,29.1-2.5,46.7c-0.5,2,0.6,4.1,2.6,4.7
		c1.4,0.5,2.7,0,3.2-0.3c0.6-0.3,1.6-1.1,1.9-2.6c1.5-7.3,3.3-18.8,2.8-31.5c-0.1-2.8,1.5-5.3,4-6.5c2.5-1.1,5.5-0.6,7.5,1.3
		c11.6,11.2,19.7,24.9,24.3,40.6c0.6,2,0.2,4.2-1,5.9c-2.7,3.7-5.3,7-7.9,10c1.1-0.3,2.1-0.8,2.6-1.1c2-1.1,4.5-1.1,6.5,0
		c2,1.1,3.4,3.1,3.6,5.4c0.4,5.2,0.5,10.3,0.2,15.4c-0.5,8.9-5.2,17.1-12.7,22.1l-6.7,4.4c-4.7,3.1-10.2,4.8-15.8,4.8h-4
		c-5.4,0-9.8,4.4-9.8,9.8v1.6c0,7.5-3,14.9-8.3,20.2C166.8,180.3,159.5,183.3,152.1,183.3z M144.2,168.5c2,0.4,3.9,0.8,5.9,1
		c4.5,0.6,9.1-1,12.4-4.3c2.8-2.8,4.4-6.6,4.4-10.5v-1.6c0-12.9,10.5-23.5,23.5-23.5h4c2.9,0,5.8-0.9,8.3-2.5l6.7-4.4
		c3.9-2.6,6.4-6.9,6.6-11.5c0.1-1.7,0.1-3.4,0.1-5.2c-4.4,0.3-7.6-1.4-9.5-2.8c0,0,0,0,0,0c-2.8-2-4.6-5.1-4.9-8.5
		c-0.4-3.6,0.8-7.1,3.3-9.8c2.1-2.3,4.4-5,6.6-8c-2.1-6.5-5.1-12.5-8.7-18.1c-0.6,6.5-1.6,12.1-2.5,16.4c-1,4.9-4.1,9.1-8.4,11.6
		c-4.3,2.5-9.6,3-14.3,1.4c-8.6-2.9-13.6-11.8-11.5-20.7c3.9-17.2,3.8-29.8,2.8-38c-4-2-8.2-3.8-12.7-5.4c-0.3,3.7-1,6.7-1.7,9
		c-1.8,6.2-7.6,10.2-14,10.2l-0.9,0c-3.9-0.1-7.5-1.8-10.1-4.7c-2.6-3-3.9-7.1-3.5-11.1c0.2-1.9,0.2-4.1,0.1-6.5
		c-0.3,2.4-1.1,4.4-2.4,6.1c-1.9,2.5-4.8,3.9-8.1,3.9c-7.8,0-14.4-5.7-19.8-17.1c-6.2-0.2-12.4-0.3-18.7-0.1c-0.3,2-0.7,4.5-1.1,7.5
		c5.1,3.9,9.7,6.8,13.5,8.3c3.8,1.6,6.8,4.6,8.2,8.4c1.4,3.7,1.2,7.6-0.6,11.1L97,49.8c-2.9,5.8-9.3,8.8-15.6,7.5
		c-2-0.4-4.5-1.1-7.4-2.2c0,2.3,0,4.5,0.1,6.8c8.3,5.6,18.6,10.4,30.7,14.2c8.7,2.7,13.9,11.5,12,20.4c-1,4.9-4.1,9.2-8.5,11.7
		c-4.3,2.5-9.5,3-14.2,1.4c-3.8-1.3-8.8-3.1-14.2-5.6c1.4,5.1,3,10,4.9,14.6c7.4-0.7,16.6-2,24.9-4.3c3.5-1,7.2-0.4,10.2,1.5
		c2.9,1.9,4.8,4.9,5.4,8.3c1.6,10.2-5.9,17.9-22.2,23.1c3.8,3.8,8,7.2,12.5,10.1c4.3-1.4,8.2-2.8,11.6-4.3c3.3-1.4,7.1-1.4,10.3,0.1
		c3.1,1.4,5.5,4.2,6.5,7.4C144.6,162.3,145.1,165.2,144.2,168.5z"/>
	<path class="st2" d="M252.6,141.2c2.7,1.9,2.9,5.8,0.6,8.2c-3.3,3.6-6.3,7.4-9.2,11.3c3.6,12.5,10.3,25.8,22.5,37.6
		c-0.5-12.9,1.2-24.9,2.9-33.2c1.3-6.3,7.8-10,13.9-7.9c5.3,1.8,8.3,7.3,7,12.7c-4.6,20-4.1,34.4-2.4,44c7.4,4,15.9,7.5,25.7,10.3
		c-0.7-6.8,0.3-12.6,1.4-16.5c0.9-3.2,3.9-5.4,7.2-5.3l0.8,0c4.4,0.1,7.5,4,7,8.4c-0.6,5.5,0,11.9,1,17.5c4.5,0.8,9.1,1.5,14,2.1
		c-2.4-8.7-2.7-15.5,2.1-15.5c6.8,0,11.9,8.4,15.3,16.9c9,0.4,18.6,0.5,29,0.1c0,0,1.4-6.6,2.6-17.1c-5-4.1-11.7-9.1-18.2-11.7
		c-4.1-1.7-6-6.2-4.1-10.1l0.4-0.7c1.5-3,4.8-4.6,8.1-3.9c4,0.8,9.6,2.7,15.4,6.6c0.3-6.7,0.3-13.9,0-21.5
		c-7.6-5.6-18.8-11.9-35.3-17.1c-5.3-1.7-8.5-7-7.4-12.5c1.3-6.3,7.8-10.1,13.9-8c7,2.4,16.5,6.1,26.2,11.7
		c-2-11.7-5.3-23.5-10.4-34.4c-8.6,0.6-20.4,2-31,5c-3.2,0.9-6.5-1-7-4.3c-0.8-5.2,3-13.1,27.7-18.3c-6.3-8.4-14.1-15.7-23.9-21.4
		c-5.1,1.5-10.3,3.3-15.3,5.5c-3,1.3-6.6-0.1-7.5-3.2c-0.8-2.7-0.4-6.3,3.7-10.4c-4.8-1.4-9.8-2.6-15.3-3.4
		c-6.7-1-13.4,1.4-18.2,6.2c-4.1,4.1-6.4,9.6-6.4,15.3v1.6c0,9.2-7.5,16.7-16.7,16.7h-4c-4.3,0-8.5,1.3-12,3.6l-6.7,4.5
		c-5.7,3.8-9.3,10-9.6,16.8c-0.2,4-0.2,9,0.2,14.5C246.4,138.7,250.2,139.5,252.6,141.2z"/>
	<path class="st1" d="M378.6,238.9c-5.4,0-10.8-0.1-16.2-0.4c-2.7-0.1-5-1.8-6-4.3c-2-5-3.9-8.2-5.5-10.1c0.2,1.2,0.5,2.6,1,4.4
		c0.6,2.2,0.1,4.5-1.4,6.2c-1.5,1.7-3.7,2.6-5.9,2.3c-4.8-0.6-9.7-1.3-14.5-2.2c-2.8-0.5-5-2.8-5.5-5.6c-1.2-7.5-1.6-14-1-19.3
		c0-0.4-0.1-0.7-0.2-0.8l-1.1-0.1c-1.4,3.4-2.3,8.3-1.7,14.4c0.2,2.2-0.7,4.5-2.4,5.9c-1.7,1.5-4.1,1.9-6.3,1.3
		c-9.8-2.9-18.9-6.5-27-10.9c-1.8-1-3.1-2.8-3.5-4.8c-2.4-13.4-1.6-29.1,2.4-46.7c0.5-2-0.6-4.1-2.6-4.7c-1.4-0.5-2.7,0-3.2,0.3
		c-0.6,0.3-1.6,1.1-1.9,2.6c-1.5,7.3-3.3,18.8-2.8,31.5c0.1,2.8-1.5,5.3-4,6.5c-2.5,1.1-5.5,0.6-7.5-1.3
		c-11.6-11.2-19.7-24.9-24.3-40.6c-0.6-2-0.2-4.2,1-5.9c2.7-3.7,5.3-7,7.9-10c-1.1,0.3-2.1,0.8-2.6,1.1c-2,1.1-4.5,1.1-6.5,0
		c-2-1.1-3.4-3.1-3.6-5.4c-0.4-5.2-0.5-10.3-0.2-15.4c0.5-8.9,5.2-17.1,12.7-22.1l6.7-4.4c4.7-3.1,10.2-4.8,15.8-4.8h4
		c5.4,0,9.8-4.4,9.8-9.8v-1.6c0-7.5,3-14.9,8.3-20.2c6.3-6.3,15.3-9.3,24-8.1c5.2,0.7,10.6,1.9,16.3,3.6c2.3,0.7,4.1,2.5,4.7,4.9
		c0.6,2.3-0.1,4.8-1.8,6.5c-0.3,0.3-0.9,1-1.4,1.6c4.1-1.7,8.8-3.3,13.8-4.8c1.8-0.6,3.8-0.3,5.4,0.6c10,5.9,18.7,13.7,25.9,23.2
		c1.4,1.9,1.8,4.3,0.9,6.5c-0.8,2.2-2.7,3.8-5,4.3c-13.8,2.9-19.5,6.4-21.5,8.7c10.7-2.7,22-4,29.9-4.5c2.8-0.2,5.5,1.4,6.7,3.9
		c5,10.7,8.6,22.8,10.9,36.1c0.5,2.6-0.7,5.2-2.8,6.8c-2.2,1.5-5,1.6-7.3,0.3c-9.5-5.5-18.8-9.1-24.9-11.1c-1.4-0.5-2.6,0-3.1,0.3
		c-0.6,0.3-1.6,1.1-1.9,2.6c-0.4,2,0.8,4,2.8,4.6c14.9,4.7,27.4,10.8,37.4,18.1c1.7,1.2,2.7,3.1,2.7,5.2c0.3,7.3,0.3,14.8,0,22.1
		c-0.1,2.5-1.5,4.7-3.7,5.8c-2.2,1.1-4.8,1-6.9-0.4c-5.1-3.4-9.9-4.9-13-5.6l-1,1c0,0.3,0.1,0.6,0.6,0.8c5.9,2.4,12.6,6.7,19.9,12.7
		c1.8,1.5,2.7,3.7,2.4,6c-1.2,10.7-2.6,17.4-2.6,17.7c-0.6,3.1-3.3,5.3-6.4,5.4C387.4,238.8,383,238.9,378.6,238.9z M367.2,225.1
		c6.2,0.2,12.4,0.3,18.7,0.1c0.3-2,0.7-4.5,1.1-7.5c-5.1-3.9-9.7-6.8-13.6-8.3c-3.8-1.6-6.8-4.6-8.2-8.4c-1.4-3.7-1.2-7.6,0.6-11.1
		l0.4-0.8c2.9-5.8,9.3-8.8,15.6-7.5c2,0.4,4.5,1.1,7.3,2.2c0-2.3,0-4.6-0.1-6.8c-8.3-5.6-18.6-10.4-30.7-14.2
		c-8.7-2.7-13.9-11.5-12-20.4c1-4.9,4.1-9.2,8.5-11.6c4.3-2.5,9.5-3,14.2-1.4c3.8,1.3,8.8,3.1,14.2,5.6c-1.4-5.1-3-10-4.9-14.6
		c-7.4,0.7-16.6,2-24.9,4.3c-3.5,1-7.2,0.4-10.2-1.5c-2.9-1.9-4.8-4.9-5.4-8.3c-1.6-10.2,5.9-17.9,22.2-23.2
		c-3.8-3.8-8-7.2-12.5-10.1c-4.3,1.4-8.2,2.8-11.6,4.3c-3.3,1.5-7.1,1.4-10.3-0.1c-3.1-1.4-5.5-4.2-6.5-7.4c-0.5-1.8-1-4.7-0.2-8
		c-2-0.4-3.9-0.8-5.9-1c-4.5-0.6-9.1,1-12.4,4.3c-2.8,2.8-4.4,6.6-4.4,10.5v1.6c0,12.9-10.5,23.5-23.5,23.5h-4
		c-2.9,0-5.8,0.9-8.3,2.5l-6.7,4.4c-3.9,2.6-6.4,6.9-6.6,11.5c-0.1,1.7-0.1,3.4-0.1,5.2c4.4-0.3,7.6,1.4,9.5,2.8c0,0,0,0,0,0
		c2.8,2,4.6,5.1,4.9,8.5c0.4,3.6-0.8,7.1-3.3,9.8c-2.1,2.3-4.4,5-6.6,8c2.1,6.5,5.1,12.5,8.7,18.1c0.6-6.5,1.6-12.1,2.5-16.4
		c1-4.9,4.1-9.1,8.4-11.6c4.3-2.5,9.6-3,14.3-1.4c8.6,2.9,13.6,11.8,11.5,20.7c-3.9,17.2-3.8,29.8-2.8,38c4,2,8.2,3.8,12.7,5.4
		c0.3-3.7,1-6.7,1.7-9c1.8-6.2,7.4-10.3,14-10.2l0.9,0c3.9,0.1,7.5,1.8,10.1,4.7c2.6,3,3.9,7.1,3.5,11.2c-0.2,1.9-0.2,4.1-0.1,6.5
		c0.3-2.4,1.1-4.4,2.4-6.1c1.9-2.5,4.8-3.9,8.1-3.9C355.2,208,361.9,213.8,367.2,225.1z"/>
	<path class="st2" d="M157.4,208.7l-0.1-0.1c-6.8-6.8-16.4-9.8-25.8-8.3l-19.8,3.3c-2.9,0.5-5.3-2.1-4.6-4.9
		c3.2-12.7-2.3-25.9-13.5-32.6c-10.5-6.3-24-5.7-33.5,2c-17,13.8-24.1,32.1-26.2,50.1h26.4c2.7,0,5.2,1.5,6.4,4
		c2.2,4.5-0.6,9.8-5.6,10.3c-8.1,0.9-19.3,3.2-27.5,8.4c2,25.2,10.7,45.4,10.7,45.4c19.8,2.6,36.7,1.9,51.2-0.9
		c6.2-24.1,18.9-66.8,23.7-33.2c1.3,9.3-0.5,18.7-4.3,27.7c21-7.9,35.3-20.4,44.4-31.6C169.1,236.7,168.1,219.5,157.4,208.7z"/>
	<path class="st1" d="M68.2,294.8c-8,0-16.3-0.6-24.9-1.7c-2.4-0.3-4.4-1.9-5.4-4.1c-0.4-0.9-9.1-21.6-11.2-47.6
		c-0.2-2.5,1-5,3.2-6.3c9.4-5.9,21.7-8.3,30.4-9.3l-0.1-0.8H33.9c-1.9,0-3.8-0.8-5.1-2.3c-1.3-1.5-1.9-3.4-1.7-5.3
		c2.7-23,12.3-41.3,28.7-54.6c11.6-9.4,28.2-10.5,41.3-2.6c12.6,7.6,19.3,21.7,17.4,36l15.8-2.6c11.6-1.9,23.5,1.9,31.8,10.2
		l0.1,0.1c13.4,13.4,14.4,34.4,2.5,48.9c-12.3,14.9-28.7,26.6-47.3,33.6c-2.5,1-5.4,0.3-7.3-1.6c-1.9-2-2.4-4.9-1.4-7.4
		c3.5-8.4,4.8-16.4,3.8-23.8c-2.6,6.3-6.1,16.9-10.4,33.6c-0.7,2.5-2.7,4.5-5.3,5C87.7,293.9,78.2,294.8,68.2,294.8z M49.2,280.1
		c14.5,1.6,28.2,1.4,40.8-0.5c11.5-43.5,18.1-46.8,24.5-46.5c8.9,0.5,10.6,12.5,11.4,18.3c0.7,5.2,0.7,10.7-0.3,16.2
		c13.4-7.4,22.7-16.4,28.5-23.5c7.5-9,6.8-22.2-1.6-30.6l-0.1-0.1c-5.2-5.2-12.6-7.6-19.9-6.4l-19.8,3.3c-3.6,0.6-7.2-0.6-9.7-3.3
		c-2.5-2.7-3.4-6.4-2.6-10c2.5-9.8-1.7-19.9-10.4-25.1c-8.2-4.9-18.5-4.3-25.7,1.5c-11.7,9.5-19.2,22.3-22.5,38h18.4
		c5.3,0,10.1,3,12.5,7.8c2,4.1,2,8.9-0.2,12.9c-2.2,4-6.2,6.7-10.7,7.2c-8.3,1-15.6,2.8-21.1,5.4C42.6,260.6,46.9,274,49.2,280.1z
		 M110.5,196.9C110.5,196.9,110.5,196.9,110.5,196.9L110.5,196.9z"/>
	<path class="st3" d="M122,306.7c-6.5,12.1-10.2,26-10.2,40.7c0,47.4,38.4,85.9,85.9,85.9s85.9-38.4,85.9-85.9
		c0-14.7-3.7-28.6-10.2-40.7H122z"/>
	<g>
		<path class="st1" d="M197.6,440.1c-51.1,0-92.7-41.6-92.7-92.7c0-15.3,3.8-30.5,11.1-43.9c1.2-2.2,3.5-3.6,6-3.6h151.3
			c2.5,0,4.8,1.4,6,3.6c7.2,13.4,11.1,28.6,11.1,43.9C290.3,398.5,248.8,440.1,197.6,440.1z M126.2,313.5c-5,10.5-7.6,22.2-7.6,33.9
			c0,43.6,35.5,79.1,79.1,79.1c43.6,0,79.1-35.5,79.1-79.1c0-11.7-2.6-23.3-7.6-33.9H126.2z"/>
		<path class="st1" d="M230.6,397.9c-2.1,0-4.1-0.9-5.4-2.7c-2.3-3-1.7-7.3,1.3-9.6c12.9-9.8,20.3-24.6,20.3-40.8
			c0-3.8,3.1-6.8,6.8-6.8s6.8,3.1,6.8,6.8c0,20.5-9.4,39.3-25.7,51.7C233.4,397.4,232,397.9,230.6,397.9z"/>
	</g>
</g>
<g id="Layer_2" class="st4">
	<path class="st5" d="M-123,263.5c0,84.7-68.7,153.4-153.4,153.4c-84.7,0-153.4-68.7-153.4-153.4c0-84.7,68.7-153.4,153.4-153.4
		C-191.7,110.1-123,178.8-123,263.5z"/>
	<path class="st6" d="M-240.2,317.7l31.6-94.3l43-17.7l24.9-16.6l16.6-33.2l16.6,4.1l16.6-8.3l49.8,8.3l-54.6,24l-20.5,27.3
		c-43.2,18-80.6,47.4-108.4,85.1L-240.2,317.7z"/>
	<path class="st7" d="M-240.2,324.5c-1.1,0-2.1-0.2-3.1-0.8c-3-1.5-4.4-5-3.3-8.2l31.6-94.3c0.6-1.9,2-3.4,3.9-4.1l42.4-17.4
		l22.8-15.2l15.8-31.6c1.4-2.9,4.6-4.3,7.8-3.6l14.1,3.5l14.3-7.2c1.3-0.6,2.8-0.9,4.2-0.6l49.8,8.3c3,0.5,5.3,2.9,5.6,5.9
		c0.4,3-1.3,5.9-4,7.1l-52.9,23.2l-19.4,25.8c-0.7,1-1.7,1.7-2.8,2.2c-42,17.5-78.5,46.2-105.5,82.8l-15.6,21.2
		C-236,323.6-238.1,324.5-240.2,324.5z M-203.1,228.5l-17.3,51.6c26.9-32.3,61.1-57.8,99.9-74.3l19.4-25.8c0.7-0.9,1.6-1.7,2.7-2.2
		l33.6-14.8l-25-4.2l-14.6,7.3c-1.5,0.7-3.1,0.9-4.7,0.5l-11.3-2.8l-14.1,28.3c-0.5,1.1-1.3,2-2.3,2.6l-24.9,16.6
		c-0.4,0.2-0.8,0.5-1.2,0.6L-203.1,228.5z"/>
	<path class="st6" d="M-240.2,317.7l12.4-149.3l16.6-8.3v-16.6l12.4-12.4v-29l16.6-4.1l8.3-33.2l41.5-8.3l-12.4,33.2l-20.7,16.6
		l8.3,20.7l-29,16.6l4.1,37.3l-24.9,8.3l8.3,16.6L-240.2,317.7z"/>
	<path class="st7" d="M-240.2,324.5c-0.5,0-1-0.1-1.5-0.2c-3.3-0.7-5.6-3.8-5.3-7.2l12.4-149.3c0.2-2.4,1.6-4.5,3.7-5.5l12.8-6.4
		v-12.4c0-1.8,0.7-3.5,2-4.8l10.4-10.4v-26.2c0-3.1,2.1-5.9,5.2-6.6l12.6-3.2l7.3-29.2c0.6-2.6,2.7-4.5,5.3-5l41.5-8.3
		c2.4-0.5,4.9,0.4,6.5,2.3c1.6,1.9,2.1,4.5,1.2,6.8L-138.4,92c-0.4,1.2-1.2,2.2-2.1,2.9l-16.8,13.4l6.4,16c1.3,3.2,0,6.8-3,8.5
		l-25.1,14.4l3.6,32.9c0.4,3.2-1.6,6.2-4.6,7.2l-17.4,5.8l4.8,9.6c0.8,1.7,0.9,3.7,0.3,5.4l-41.5,112
		C-234.8,322.8-237.4,324.5-240.2,324.5z M-221.2,172.8l-8,95.7l23.1-62.4l-7-13.9c-0.9-1.8-1-3.8-0.2-5.7c0.8-1.8,2.3-3.2,4.1-3.9
		l19.7-6.6l-3.5-31.8c-0.3-2.7,1-5.3,3.4-6.7l23.9-13.6l-6.1-15.2c-1.1-2.8-0.3-6,2.1-7.9l19.3-15.4l7.5-19.9l-25.2,5l-7.2,29
		c-0.6,2.4-2.5,4.3-5,5l-11.4,2.9v23.7c0,1.8-0.7,3.5-2,4.8l-10.4,10.4v13.8c0,2.6-1.5,4.9-3.8,6.1L-221.2,172.8z"/>
	<path class="st6" d="M-240.2,317.7l66.3-58.1l41.5-4.1l33.2,41.5l-45.6-12.4l-16.6-8.3l-12.4,16.6L-240.2,317.7z"/>
	<path class="st7" d="M-240.2,324.5c-2.3,0-4.6-1.2-5.9-3.3c-1.7-2.8-1.1-6.5,1.4-8.6l66.3-58.1c1.1-0.9,2.4-1.5,3.8-1.7l41.5-4.1
		c2.3-0.2,4.6,0.7,6,2.5l33.2,41.5c1.8,2.3,2,5.5,0.4,8c-1.6,2.5-4.6,3.6-7.5,2.8l-45.6-12.4c-0.4-0.1-0.9-0.3-1.3-0.5l-11.5-5.7
		l-9,12c-0.8,1-1.8,1.8-3.1,2.3l-66.3,24.9C-238.5,324.4-239.4,324.5-240.2,324.5z M-171,266.2l-36.5,31.9l29.4-11l11.2-15
		c2-2.6,5.6-3.5,8.5-2l16,8l24.8,6.8l-17.8-22.2L-171,266.2z"/>
	<path class="st6" d="M-252.6,313.6l-99.5-112l-24.9-4.1v-16.6h-20.7v-16.6l-29-4.1l-4.1-24.9l-16.6-20.7l58.1,12.4l8.3,12.4l32,8.4
		l84.1,82.8L-252.6,313.6z"/>
	<path class="st7" d="M-252.6,320.4c-1.9,0-3.8-0.8-5.1-2.3l-97.9-110.2l-22.5-3.8c-3.3-0.5-5.7-3.4-5.7-6.7v-9.8h-13.9
		c-3.8,0-6.8-3.1-6.8-6.8v-10.7l-23.2-3.3c-2.9-0.4-5.3-2.7-5.8-5.6l-3.9-23.1l-15.5-19.4c-1.8-2.3-2-5.4-0.5-7.8
		c1.5-2.4,4.4-3.7,7.2-3.1l58.1,12.4c1.7,0.4,3.3,1.4,4.2,2.9l6.9,10.3l29.5,7.8c1.2,0.3,2.2,0.9,3,1.7l84.1,82.8
		c1.1,1,1.7,2.4,2,3.9l12.4,82.9c0.5,3-1.1,5.9-3.9,7.2C-250.6,320.2-251.6,320.4-252.6,320.4z M-370.2,191.7l19.2,3.2
		c1.5,0.3,2.9,1,4,2.2l84.3,94.8l-8.7-58l-81.2-79.9l-30.2-8c-1.6-0.4-3-1.4-3.9-2.8l-6.8-10.1l-36.6-7.9l4.6,5.8
		c0.7,0.9,1.2,2,1.4,3.1l3.3,20l24.1,3.4c3.4,0.5,5.9,3.4,5.9,6.7v9.8h13.9c3.8,0,6.8,3.1,6.8,6.8V191.7z"/>
	<path class="st6" d="M-385.3,263.8l29-16.6l35.5-1.7l68.1,68.1l-74.6-45.6l-29,4.1L-385.3,263.8z"/>
	<path class="st7" d="M-252.6,320.4c-1.2,0-2.4-0.3-3.6-1l-72.5-44.3l-26.6,3.8c-0.9,0.1-1.9,0.1-2.8-0.2l-29-8.3
		c-2.6-0.8-4.6-3-4.9-5.7c-0.3-2.7,1-5.4,3.4-6.7l29-16.6c0.9-0.5,2-0.8,3-0.9l35.5-1.7c1.9-0.1,3.8,0.6,5.2,2l68.1,68.1
		c2.4,2.4,2.7,6.3,0.5,9C-248.6,319.5-250.6,320.4-252.6,320.4z M-327.2,261.1c1.2,0,2.5,0.3,3.6,1l25.7,15.7l-25.4-25.4l-30.9,1.5
		l-13.6,7.7l12.1,3.4l27.6-3.9C-327.9,261.2-327.6,261.1-327.2,261.1z"/>
	<path class="st6" d="M-240.2,317.7l-16.6-136.8c0,0-28.5-123.7-132.2-119.5l28.5,32.4l-4.1,41.5h20.7l-4.1,37.3l24.9,8.3v20.7
		l29,12.4C-294.1,214.1-252.6,251.4-240.2,317.7z"/>
	<path class="st7" d="M-240.2,324.5c-3.2,0-6.1-2.3-6.7-5.6c-11-58.4-45.4-93.7-51-99.1l-27.9-12c-2.5-1.1-4.1-3.5-4.1-6.3v-15.8
		l-20.2-6.7c-3.1-1-5-4-4.6-7.2l3.3-29.7h-13.1c-1.9,0-3.8-0.8-5.1-2.2c-1.3-1.4-1.9-3.3-1.7-5.3l3.9-38.5l-26.6-30.2
		c-1.7-2-2.2-4.8-1.1-7.2c1-2.4,3.4-4,6-4.1c108.1-4.5,138.8,123.5,139.1,124.8c0.1,0.2,0.1,0.5,0.1,0.7l16.6,136.8
		c0.4,3.7-2.1,7-5.7,7.6C-239.5,324.5-239.8,324.5-240.2,324.5z M-316.3,197.1l24.9,10.7c0.7,0.3,1.3,0.7,1.9,1.2
		c1.1,1,19.1,17.5,35.1,47.5l-9-74.4c-0.8-3.3-8.2-31.7-26.4-59.1c-22-33.1-50.1-51.4-83.7-54.5l18.3,20.8c1.2,1.4,1.9,3.3,1.7,5.2
		l-3.4,34h13.2c1.9,0,3.8,0.8,5.1,2.3c1.3,1.4,1.9,3.4,1.7,5.3l-3.5,31.8l19.6,6.5c2.8,0.9,4.7,3.5,4.7,6.5V197.1z"/>
	<path class="st8" d="M-315.9,306.3c-6.5,12.1-10.2,26-10.2,40.7c0,47.4,38.4,85.9,85.9,85.9s85.9-38.4,85.9-85.9
		c0-14.7-3.7-28.6-10.2-40.7H-315.9z"/>
	<g class="st9">
		<path class="st1" d="M-240.2,439.6c-51.1,0-92.7-41.6-92.7-92.7c0-15.3,3.8-30.5,11.1-43.9c1.2-2.2,3.5-3.6,6-3.6h151.3
			c2.5,0,4.8,1.4,6,3.6c7.2,13.4,11.1,28.6,11.1,43.9C-147.5,398.1-189.1,439.6-240.2,439.6z M-311.7,313.1
			c-5,10.5-7.6,22.2-7.6,33.9c0,43.6,35.5,79.1,79.1,79.1c43.6,0,79.1-35.5,79.1-79.1c0-11.7-2.6-23.3-7.6-33.9H-311.7z"/>
		<path class="st1" d="M-207.3,397.4c-2.1,0-4.1-0.9-5.4-2.7c-2.3-3-1.7-7.3,1.3-9.6c12.9-9.8,20.3-24.6,20.3-40.8
			c0-3.8,3.1-6.8,6.8-6.8s6.8,3.1,6.8,6.8c0,20.5-9.4,39.3-25.7,51.7C-204.4,397-205.9,397.4-207.3,397.4z"/>
	</g>
</g>
<g id="Layer_3" class="st4">
	<path class="st5" d="M742,263.3c0,84.7-68.7,153.4-153.4,153.4s-153.4-68.7-153.4-153.4c0-84.7,68.7-153.4,153.4-153.4
		S742,178.6,742,263.3z"/>
	<path class="st7" d="M622.6,419.6c-1,0-2.1-0.2-3-0.7c-3.4-1.7-4.7-5.8-3.1-9.2l12.7-25.3c7.8-15.7,6.2-34.2-4.4-48.2
		c-14.6-19.5-16-45.6-3.4-66.5l7.1-11.8c8.4-13.9,8.7-31.5,0.9-45.7l-13.2-24.2c-9.3-17.1-9.7-37.8-1-55.3L637,89.2
		c1.7-3.4,5.8-4.7,9.2-3c3.4,1.7,4.7,5.8,3,9.2l-21.8,43.5c-6.7,13.5-6.4,29.4,0.8,42.6l13.2,24.2c10.1,18.5,9.6,41.2-1.2,59.3
		l-7.1,11.8c-9.7,16.1-8.6,36.3,2.6,51.3c13.7,18.2,15.8,42.1,5.6,62.5l-12.7,25.3C627.5,418.2,625.1,419.6,622.6,419.6z"/>
	<path class="st8" d="M549.1,306.4c-6.5,12.1-10.2,26-10.2,40.7c0,47.4,38.4,85.9,85.9,85.9s85.9-38.4,85.9-85.9
		c0-14.7-3.7-28.6-10.2-40.7H549.1z"/>
	<path class="st7" d="M624.7,439.8c-51.1,0-92.7-41.6-92.7-92.7c0-15.3,3.8-30.5,11.1-43.9c1.2-2.2,3.5-3.6,6-3.6h151.3
		c2.5,0,4.8,1.4,6,3.6c7.2,13.4,11.1,28.6,11.1,43.9C717.4,398.2,675.8,439.8,624.7,439.8z M553.2,313.3c-5,10.5-7.6,22.2-7.6,33.9
		c0,43.6,35.5,79.1,79.1,79.1c43.6,0,79.1-35.5,79.1-79.1c0-11.7-2.6-23.3-7.6-33.9H553.2z"/>
	<path class="st7" d="M657.6,397.6c-2.1,0-4.1-0.9-5.4-2.7c-2.3-3-1.7-7.3,1.3-9.6c12.9-9.8,20.3-24.6,20.3-40.8
		c0-3.8,3-6.8,6.8-6.8s6.8,3.1,6.8,6.8c0,20.5-9.4,39.3-25.7,51.7C660.5,397.1,659,397.6,657.6,397.6z"/>
	<path class="st6" d="M697,72.8c0,0-12.4-12.3-26.7-9.3c0,0,3.6-30.4-12.5-45.9c-21.6,5.5-33.6,33.7-33.6,33.7
		c-10.9-9.6-27.8-5.1-27.8-5.1C591.5,65,610.2,79,610.2,79c-6.4,7.3-6,14.1-6,14.1c17.7,9.2,33.6-0.1,33.6-0.1s9.2,15.9,29.2,16.7
		c0,0,3.8-5.7,1.8-15.2C668.8,94.5,692,91.7,697,72.8z"/>
	<path class="st7" d="M667,116.5c-0.1,0-0.2,0-0.3,0c-16-0.6-26.1-9.4-31.1-15.1c-7.2,2.5-20.3,5.1-34.5-2.3
		c-2.1-1.1-3.5-3.2-3.7-5.6c0-0.8-0.3-6.6,3.7-13.6c-6.2-6.4-15.5-19.3-11.3-35.5c0.6-2.4,2.5-4.2,4.8-4.8
		c0.7-0.2,14.5-3.7,26.8,1.9c5.5-9.6,17.1-26.1,34.6-30.5c2.3-0.6,4.7,0.1,6.4,1.7c13,12.5,14.9,32.6,14.9,43.6
		c13.6,1.2,23.8,11.1,24.3,11.6c1.7,1.7,2.4,4.2,1.8,6.6c-4.3,16.2-18.7,22.7-27.3,25.3c0,8-3,13-3.5,13.6
		C671.5,115.4,669.3,116.5,667,116.5z M637.9,86.2c0.6,0,1.2,0.1,1.7,0.2c1.8,0.5,3.2,1.6,4.2,3.2c0.3,0.4,6.2,10.1,18.7,12.7
		c0.2-1.6,0.3-3.8-0.3-6.4c-0.4-1.9,0-3.8,1.1-5.4c1.1-1.5,2.8-2.6,4.7-2.8c0.1,0,15.1-2.1,20.8-12.7c-3.8-2.7-10.4-6.2-17.1-4.8
		c-2.1,0.5-4.4-0.2-6-1.6c-1.6-1.5-2.4-3.6-2.2-5.8c0-0.3,2.5-23.5-7.8-37.2c-13.1,5.7-22.5,22.1-25.2,28.4c-0.9,2-2.6,3.5-4.8,4
		c-2.1,0.5-4.4-0.1-6-1.5c-5.1-4.5-12.6-4.7-17.3-4.3c-0.3,12.1,11.7,21.3,11.8,21.4c1.5,1.1,2.5,2.9,2.7,4.8
		c0.2,1.9-0.4,3.8-1.7,5.2c-1.8,2-2.8,3.9-3.4,5.4c12.3,4,22.4-1.7,22.5-1.8C635.5,86.5,636.7,86.2,637.9,86.2z"/>
	<path class="st6" d="M722.3,216.8c0,0-0.3-17.3-12.5-25.1c0,0,23.6-19.1,22.9-41.2c-19.1-11.1-47.2,0.7-47.2,0.7
		c-1.1-14.4-16.2-22.9-16.2-22.9c-16.6,9.9-13,32.8-13,32.8c-9.6,0.7-14,5.9-14,5.9c6.2,18.8,23.9,23.3,23.9,23.3
		s-4.5,17.7,9.2,32.1c0,0,6.6-1.5,11.8-9.6C687.3,212.7,705.7,226.7,722.3,216.8z"/>
	<path class="st7" d="M675.5,229.1c-1.9,0-3.7-0.8-5-2.1c-10.9-11.5-12.1-24.8-11.6-32.3c-6.9-3.2-18-10.5-23-25.6
		c-0.8-2.3-0.3-4.8,1.3-6.6c0.5-0.6,4.4-4.9,12-7.1c0-8.9,2.3-24.5,16.6-33c2.1-1.3,4.7-1.3,6.8-0.1c0.6,0.4,12.9,7.4,17.7,20
		c10.6-3.1,30.2-6.7,45.7,2.3c2,1.2,3.3,3.3,3.4,5.7c0.6,17.9-11.9,33.5-19.6,41.3c8.8,10.3,9.2,24.4,9.2,25.1c0,2.4-1.2,4.7-3.3,6
		c-14.2,8.5-29.1,3.2-36.9-1c-5.5,5.7-11.1,7.1-11.9,7.3C676.5,229,676,229.1,675.5,229.1z M650.8,169.3
		c5.9,11.1,16.7,14.1,17.2,14.3c3.6,1,5.8,4.7,4.9,8.3c-0.1,0.5-2.6,11.5,4.4,21.9c1.3-1,2.8-2.5,4.2-4.7c1-1.6,2.7-2.7,4.6-3
		c1.9-0.3,3.8,0.1,5.3,1.3c0.1,0.1,12.2,9,23.5,5.4c-0.9-4.5-3.1-11.6-8.8-15.2c-1.8-1.2-3-3.2-3.1-5.4c-0.1-2.2,0.8-4.3,2.5-5.7
		c0.2-0.2,18.1-14.9,20.2-31.8c-13.2-5-31.2,0.1-37.5,2.7c-2,0.8-4.3,0.7-6.2-0.5c-1.9-1.1-3.1-3.1-3.2-5.3
		c-0.5-6.8-5.6-12.1-9.2-15c-8.6,8.4-6.4,23.1-6.4,23.3c0.3,1.9-0.2,3.8-1.4,5.3c-1.2,1.5-2.9,2.4-4.8,2.6
		C654.3,168,652.3,168.6,650.8,169.3z"/>
	<path class="st7" d="M636.1,209.8c-2.5,0-4.9-1.4-6.1-3.8c-1.7-3.4-0.3-7.5,3.1-9.1l24.1-11.9c3.4-1.7,7.5-0.3,9.1,3.1
		c1.7,3.4,0.3,7.5-3.1,9.1l-24.1,11.9C638.1,209.6,637.1,209.8,636.1,209.8z"/>
	<path class="st6" d="M529.8,189.5c0,0,0.3-17.3,12.5-25.1c0,0-23.6-19.1-22.9-41.2c19.1-11.1,47.2,0.7,47.2,0.7
		c1.1-14.4,16.2-22.9,16.2-22.9c16.6,9.9,13,32.8,13,32.8c9.6,0.7,14,5.9,14,5.9c-6.2,18.8-23.9,23.3-23.9,23.3s4.5,17.7-9.2,32.1
		c0,0-6.6-1.5-11.8-9.6C564.8,185.4,546.4,199.5,529.8,189.5z"/>
	<path class="st7" d="M576.6,201.8c-0.5,0-1-0.1-1.5-0.2c-0.8-0.2-6.4-1.6-11.9-7.3c-7.9,4.2-22.7,9.5-36.9,1
		c-2.1-1.3-3.4-3.5-3.3-6c0-0.7,0.4-14.8,9.2-25.1c-7.7-7.9-20.2-23.5-19.6-41.3c0.1-2.4,1.4-4.5,3.4-5.7c15.5-9,35.1-5.4,45.7-2.3
		c4.9-12.6,17.1-19.6,17.7-20c2.1-1.2,4.7-1.2,6.8,0.1c14.3,8.5,16.6,24.1,16.6,33c7.6,2.2,11.5,6.5,12,7.1c1.6,1.8,2.1,4.3,1.3,6.6
		c-5,15.1-16.1,22.4-23,25.6c0.4,7.6-0.7,20.8-11.6,32.3C580.3,201.1,578.5,201.8,576.6,201.8z M564.8,178.6c0.4,0,0.8,0,1.2,0.1
		c1.9,0.3,3.5,1.4,4.5,3c1.4,2.2,2.9,3.7,4.2,4.7c7-10.4,4.5-21.4,4.4-21.9c-0.9-3.6,1.3-7.3,5-8.2c0.5-0.1,11.3-3.1,17.2-14.3
		c-1.5-0.7-3.5-1.3-6.1-1.5c-1.9-0.1-3.7-1.1-4.8-2.6c-1.2-1.5-1.7-3.4-1.4-5.3c0-0.1,2.1-14.9-6.4-23.3c-3.6,2.9-8.7,8.2-9.2,15
		c-0.2,2.2-1.4,4.2-3.2,5.3c-1.9,1.1-4.2,1.3-6.2,0.5c-0.2-0.1-21.7-8.8-37.5-2.8c2.1,16.8,20,31.6,20.2,31.8
		c1.7,1.4,2.6,3.5,2.5,5.7c-0.1,2.2-1.3,4.2-3.1,5.4c-5.7,3.7-7.9,10.7-8.8,15.2c11.4,3.5,23.4-5.3,23.5-5.4
		C561.9,179.1,563.3,178.6,564.8,178.6z"/>
	<path class="st7" d="M616,182.5c-1,0-2-0.2-3-0.7l-24.1-11.9c-3.4-1.7-4.8-5.8-3.1-9.1c1.7-3.4,5.8-4.8,9.1-3.1l24.1,11.9
		c3.4,1.7,4.8,5.8,3.1,9.1C620.9,181.1,618.5,182.5,616,182.5z"/>
	<path class="st6" d="M536.2,236.1c0,0-3.7,16.9,6.3,27.3c0,0-27.4,13.1-31.9,34.8c16.1,15.2,46.1,10.3,46.1,10.3
		c-2.3,14.2,10.4,26,10.4,26c18.5-5.8,20.2-28.9,20.2-28.9c9.5,1.5,15-2.5,15-2.5c-1.7-19.7-17.9-28.2-17.9-28.2s8.4-16.2-1.5-33.3
		c0,0-6.8-0.1-13.7,6.6C569.3,248.2,554.6,230.3,536.2,236.1z"/>
	<g class="st9">
		<path class="st1" d="M567.2,341.3c-1.7,0-3.4-0.6-4.6-1.8c-0.5-0.5-10.8-10.1-12.6-23.5c-11,0.5-31-0.5-43.9-12.8
			c-1.7-1.6-2.5-4-2-6.3c3.6-17.5,19.3-29.8,28.7-35.7c-6.2-12-3.3-25.8-3.1-26.5c0.5-2.4,2.3-4.3,4.6-5.1c15.9-5,29,3.6,35.7,9.5
			c6.7-4.2,12.4-4.3,13.3-4.3c2.4,0,4.6,1.3,5.8,3.4c7.9,13.7,6,26.9,3.8,34.1c5.9,4.7,15,14.4,16.4,30.2c0.2,2.4-0.9,4.7-2.8,6.1
			c-0.6,0.5-5.4,3.7-13.3,4.1c-2.1,8.7-8,23.3-23.8,28.3C568.5,341.2,567.9,341.3,567.2,341.3z M556.7,301.7c1.8,0,3.5,0.7,4.8,2
			c1.5,1.5,2.3,3.7,1.9,5.9c-1.1,6.7,2.7,13,5.5,16.7c10.2-6.2,11.6-21,11.6-21.2c0.2-1.9,1.1-3.6,2.6-4.8c1.5-1.2,3.4-1.7,5.3-1.4
			c2.6,0.4,4.7,0.3,6.3,0c-3.2-12.4-13.3-17.8-13.4-17.8c-1.6-0.8-2.8-2.3-3.4-4c-0.5-1.7-0.4-3.6,0.5-5.2
			c0.2-0.4,5.2-10.5,0.8-22.3c-1.5,0.7-3.3,1.8-5.2,3.6c-1.4,1.3-3.3,2-5.1,1.9c-1.9-0.1-3.7-1-4.9-2.5c-0.1-0.1-9.8-11.6-21.6-10.7
			c-0.2,4.6,0.3,12,5,16.8c1.5,1.6,2.2,3.8,1.8,5.9c-0.4,2.2-1.8,4-3.7,4.9c-0.2,0.1-21.1,10.3-27,26.2c14,9.6,36.9,6.1,37.2,6
			C556,301.7,556.4,301.7,556.7,301.7z"/>
		<path class="st1" d="M585.1,279.8c-3,0-5.7-2-6.6-4.9c-1-3.6,1.1-7.4,4.7-8.4l47.7-13.6c3.6-1,7.4,1.1,8.4,4.7
			c1,3.6-1.1,7.4-4.7,8.4L587,279.5C586.4,279.7,585.7,279.8,585.1,279.8z"/>
	</g>
</g>
</svg>
